HIERARCHY
ROOT joint_Root
{
	OFFSET 0.0 0.0 0.0
	CHANNELS 6 Xposition Yposition Zposition Zrotation Xrotation Yrotation 
	JOINT Hips
	{
		OFFSET -17.1583 93.1646 452.98
		CHANNELS 6 Xposition Yposition Zposition Zrotation Xrotation Yrotation 
		JOINT Spine
		{
			OFFSET 15.7357 0.0 0.0
			CHANNELS 6 Xposition Yposition Zposition Zrotation Xrotation Yrotation 
			JOINT Chest
			{
				OFFSET 8.98455 -0.406207 0.0
				CHANNELS 6 Xposition Yposition Zposition Zrotation Xrotation Yrotation 
				JOINT Neck
				{
					OFFSET 16.3773 0.0 0.0
					CHANNELS 6 Xposition Yposition Zposition Zrotation Xrotation Yrotation 
					JOINT Head
					{
						OFFSET 6.45672 0.0 0.0
						CHANNELS 6 Xposition Yposition Zposition Zrotation Xrotation Yrotation 
						End Site
						{
							OFFSET 0.0 0.0 0.0
						}
					}
				}
				JOINT Shoulder_L
				{
					OFFSET 12.9942 -0.242716 4.98039
					CHANNELS 6 Xposition Yposition Zposition Zrotation Xrotation Yrotation 
					JOINT UpperArm_L
					{
						OFFSET 5.34809 0.0 0.0
						CHANNELS 6 Xposition Yposition Zposition Zrotation Xrotation Yrotation 
						JOINT LowerArm_L
						{
							OFFSET 24.3286 1.87007e-05 0.0
							CHANNELS 6 Xposition Yposition Zposition Zrotation Xrotation Yrotation 
							JOINT Hand_L
							{
								OFFSET 22.2916 0.0 0.0
								CHANNELS 6 Xposition Yposition Zposition Zrotation Xrotation Yrotation 
								End Site
								{
									OFFSET 0.0 0.0 0.0
								}
							}
						}
					}
				}
				JOINT Shoulder_R
				{
					OFFSET 12.9945 -0.242716 -4.98039
					CHANNELS 6 Xposition Yposition Zposition Zrotation Xrotation Yrotation 
					JOINT UpperArm_R
					{
						OFFSET -5.34813 0.0 0.0
						CHANNELS 6 Xposition Yposition Zposition Zrotation Xrotation Yrotation 
						JOINT LowerArm_R
						{
							OFFSET -24.3289 0.000322201 0.0
							CHANNELS 6 Xposition Yposition Zposition Zrotation Xrotation Yrotation 
							JOINT Hand_R
							{
								OFFSET -22.2915 -0.000108084 0.0
								CHANNELS 6 Xposition Yposition Zposition Zrotation Xrotation Yrotation 
								End Site
								{
									OFFSET 0.0 0.0 0.0
								}
							}
						}
					}
				}
			}
		}
		JOINT UpperLeg_L
		{
			OFFSET -2.19248 -6.46944 0.0
			CHANNELS 6 Xposition Yposition Zposition Zrotation Xrotation Yrotation 
			JOINT LowerLeg_L
			{
				OFFSET 39.0811 0.0 -1.23785e-05
				CHANNELS 6 Xposition Yposition Zposition Zrotation Xrotation Yrotation 
				JOINT Foot_L
				{
					OFFSET 40.9854 0.0 -1.26872e-05
					CHANNELS 6 Xposition Yposition Zposition Zrotation Xrotation Yrotation 
					JOINT Toes_L
					{
						OFFSET 11.7543 0.0 0.0
						CHANNELS 6 Xposition Yposition Zposition Zrotation Xrotation Yrotation 
						End Site
						{
							OFFSET 0.0 0.0 0.0
						}
					}
				}
			}
		}
		JOINT UpperLeg_R
		{
			OFFSET -2.19251 6.46944 0.0
			CHANNELS 6 Xposition Yposition Zposition Zrotation Xrotation Yrotation 
			JOINT LowerLeg_R
			{
				OFFSET -39.0811 -0.00228153 -0.0401928
				CHANNELS 6 Xposition Yposition Zposition Zrotation Xrotation Yrotation 
				JOINT Foot_R
				{
					OFFSET -40.9854 0.0 0.0
					CHANNELS 6 Xposition Yposition Zposition Zrotation Xrotation Yrotation 
					JOINT Toes_R
					{
						OFFSET -11.7543 0.0 0.0
						CHANNELS 6 Xposition Yposition Zposition Zrotation Xrotation Yrotation 
						End Site
						{
							OFFSET 0.0 0.0 0.0
						}
					}
				}
			}
		}
	}
}
MOTION
Frames:	7
Frame Time:	0.0333333
0.000000 0.000000 0.000000 0.000000 0.000000 -0.000000 -3.687620 88.655500 18.190600 -92.598300 3.516880 175.645000 15.735700 0.000005 -0.000001 145.629000 87.249100 -146.794000 8.984550 -0.406207 -0.000000 -4.619550 4.662960 -2.142960 16.377300 -0.000001 -0.000001 -2.379940 1.508430 0.907597 6.456720 -0.000001 -0.000000 2.694570 0.738479 0.673109 12.994200 -0.242716 4.980390 -92.822600 7.982920 -70.454000 5.348090 -0.000007 -0.000001 -47.686600 -21.370200 13.918800 24.328600 0.000019 0.000005 0.007486 0.173077 -2.431100 22.291600 -0.000001 0.000005 28.034100 4.394080 18.142400 12.994500 -0.242716 -4.980390 88.953800 3.937340 -75.107300 -5.348130 -0.000001 -0.000004 -65.875100 3.387660 -12.301700 -24.328900 0.000322 -0.000009 -6.543610 -6.375380 -45.900300 -22.291500 -0.000108 -0.000004 17.363700 5.487060 -5.993330 -2.192480 -6.469440 -0.000000 175.821000 -0.532059 -34.776400 39.081100 -0.000007 -0.000012 0.213551 -0.333044 32.668500 40.985400 -0.000006 -0.000013 2.435400 8.111680 -59.787900 11.754300 -0.000000 0.000003 0.002480 0.088363 -12.993300 -2.192510 6.469440 -0.000001 174.249000 4.214730 -176.906000 -39.081100 -0.002282 -0.040193 0.092987 -0.105981 40.246600 -40.985400 0.000008 0.000006 0.221239 -3.491580 -48.775000 -11.754300 -0.000006 -0.000006 -0.154911 -0.564343 -40.471600
0.000000 0.000000 0.000000 0.000000 0.000000 -0.000000 -4.339910 88.244500 12.858400 -93.462100 2.975570 177.319000 15.735700 0.000005 -0.000001 131.702000 87.107000 -133.066000 8.984550 -0.406207 -0.000000 -3.401110 3.980050 -2.611240 16.377300 -0.000001 -0.000001 -2.475620 1.376800 1.003640 6.456720 -0.000001 -0.000000 1.780550 1.133070 0.248796 12.994200 -0.242716 4.980390 -93.216400 9.283000 -70.792900 5.348090 -0.000007 -0.000001 -53.734400 -18.426300 8.658330 24.328600 0.000019 0.000005 0.330330 4.232690 -4.441280 22.291600 -0.000001 0.000005 8.849410 4.718860 12.665400 12.994500 -0.242716 -4.980390 88.599700 5.030610 -74.424900 -5.348130 -0.000001 -0.000004 -65.819000 6.230340 -10.241100 -24.328900 0.000322 -0.000009 -1.935380 -2.820670 -34.296900 -22.291500 -0.000108 -0.000004 10.677100 5.412750 -3.261810 -2.192480 -6.469440 -0.000000 174.781000 2.044900 -32.485500 39.081100 -0.000007 -0.000012 0.392088 -0.493474 38.469400 40.985400 -0.000006 -0.000013 3.411090 6.321700 -64.940800 11.754300 -0.000000 0.000003 0.001822 0.127161 -11.420200 -2.192510 6.469440 -0.000001 173.011000 4.462330 178.753000 -39.081100 -0.002282 -0.040193 0.185301 -0.151395 50.253400 -40.985400 0.000008 0.000006 1.640350 -5.786330 -34.118900 -11.754300 -0.000006 -0.000006 -0.038247 -0.253047 -26.962800
0.000000 0.000000 0.000000 0.000000 0.000000 -0.000000 -4.885250 88.089100 8.154160 -94.342600 3.879910 178.817000 15.735700 0.000005 -0.000001 120.541000 86.972000 -122.133000 8.984550 -0.406207 -0.000000 -2.505190 3.218940 -3.112850 16.377300 -0.000001 -0.000001 -2.092980 2.004810 0.868802 6.456720 -0.000001 -0.000000 1.597230 2.253180 0.200886 12.994200 -0.242716 4.980390 -93.533600 10.239700 -70.844400 5.348090 -0.000007 -0.000001 -59.483400 -10.580600 3.198480 24.328600 0.000019 0.000005 2.007540 13.037100 -8.804320 22.291600 -0.000001 0.000005 -6.208540 4.970260 7.799600 12.994500 -0.242716 -4.980390 88.124900 6.652320 -74.219100 -5.348130 -0.000001 -0.000004 -65.028700 10.354700 -9.249270 -24.328900 0.000322 -0.000009 2.514450 6.578880 -21.116600 -22.291500 -0.000108 -0.000004 0.450240 5.311050 -0.176574 -2.192480 -6.469440 -0.000000 173.136000 1.210320 -29.042500 39.081100 -0.000007 -0.000012 0.523710 -0.597217 41.249200 40.985400 -0.000006 -0.000013 4.583010 5.968160 -69.239600 11.754300 -0.000000 0.000003 0.001216 0.143748 -10.747300 -2.192510 6.469440 -0.000001 171.701000 3.777100 172.323000 -39.081100 -0.002282 -0.040193 0.319320 -0.193487 58.530100 -40.985400 0.000008 0.000006 2.169770 -7.965130 -18.339400 -11.754300 -0.000006 -0.000006 0.001874 0.125500 -11.484000
0.000000 0.000000 0.000000 0.000000 0.000000 -0.000000 -5.161920 88.892100 3.585340 -94.804700 4.502710 179.615000 15.735700 0.000005 -0.000001 107.420000 87.228100 -109.000000 8.984550 -0.406207 -0.000000 -2.450160 1.799970 -3.121050 16.377300 -0.000001 -0.000001 -1.466090 3.011470 -0.048529 6.456720 -0.000001 -0.000000 2.593360 3.588880 0.393700 12.994200 -0.242716 4.980390 -93.511100 10.298800 -71.058000 5.348090 -0.000007 -0.000001 -63.215800 0.471755 -1.214010 24.328600 0.000019 0.000005 8.154170 26.140000 -17.987900 22.291600 -0.000001 0.000005 -13.975600 5.266170 0.896511 12.994500 -0.242716 -4.980390 88.157400 6.571820 -74.299700 -5.348130 -0.000001 -0.000004 -66.998800 10.414700 -6.254880 -24.328900 0.000322 -0.000009 3.086010 17.806900 -10.024800 -22.291500 -0.000108 -0.000004 -6.294000 5.228030 2.024750 -2.192480 -6.469440 -0.000000 172.038000 -1.409780 -23.730200 39.081100 -0.000007 -0.000012 0.537013 -0.660711 39.104900 40.985400 -0.000006 -0.000013 5.913110 7.409630 -71.799600 11.754300 -0.000000 0.000003 0.000717 0.154532 -10.309600 -2.192510 6.469440 -0.000001 171.492000 3.887420 165.939000 -39.081100 -0.002282 -0.040193 0.288922 -0.126169 66.178300 -40.985400 0.000008 0.000006 1.921240 -5.881040 -24.979800 -11.754300 -0.000006 -0.000006 0.001854 0.126184 -11.456200
0.000000 0.000000 0.000000 0.000000 0.000000 -0.000000 -5.033320 90.173000 -0.922102 -93.760300 3.909720 -179.349000 15.735700 0.000005 -0.000001 86.371600 87.216000 -87.310800 8.984550 -0.406207 -0.000000 -2.210790 -0.270534 -1.883460 16.377300 -0.000001 -0.000001 -0.717823 3.764900 -1.236930 6.456720 -0.000001 -0.000000 3.861100 4.871800 0.161241 12.994200 -0.242716 4.980390 -93.292600 9.835540 -71.387300 5.348090 -0.000007 -0.000001 -64.097000 10.349000 -5.344430 24.328600 0.000019 0.000005 18.050500 33.572500 -30.503100 22.291600 -0.000001 0.000005 -13.850400 5.382540 -2.376870 12.994500 -0.242716 -4.980390 88.483100 5.282920 -73.953500 -5.348130 -0.000001 -0.000004 -68.948600 4.942600 -1.667530 -24.328900 0.000322 -0.000009 0.432368 19.795700 -1.276180 -22.291500 -0.000108 -0.000004 -5.255440 5.070370 5.742740 -2.192480 -6.469440 -0.000000 173.130000 -2.875660 -16.651000 39.081100 -0.000007 -0.000012 0.451019 -0.663462 34.208800 40.985400 -0.000006 -0.000013 6.648580 9.163410 -72.971600 11.754300 -0.000000 0.000003 0.000505 0.158635 -10.143100 -2.192510 6.469440 -0.000001 173.381000 4.287570 161.378000 -39.081100 -0.002282 -0.040193 0.257924 -0.096726 69.212700 -40.985400 0.000008 0.000006 -0.448712 -2.618000 -34.153600 -11.754300 -0.000006 -0.000006 0.001548 0.135392 -11.082700
0.000000 0.000000 0.000000 0.000000 0.000000 -0.000000 -4.649710 91.574300 -5.178690 -91.601500 2.629820 -178.706000 15.735700 0.000005 -0.000001 67.052700 86.847100 -66.945400 8.984550 -0.406207 -0.000000 -1.957550 -2.467000 0.172484 16.377300 -0.000001 -0.000001 -0.103088 4.198180 -2.307650 6.456720 -0.000001 -0.000000 4.756670 5.943900 -0.223882 12.994200 -0.242716 4.980390 -92.919800 8.939220 -71.828200 5.348090 -0.000007 -0.000001 -64.059900 13.696300 -9.473220 24.328600 0.000019 0.000005 24.645700 32.521500 -40.477900 22.291600 -0.000001 0.000005 -10.398900 5.255390 1.222280 12.994500 -0.242716 -4.980390 88.826400 3.911120 -73.281900 -5.348130 -0.000001 -0.000004 -67.969500 -2.769790 3.856850 -24.328900 0.000322 -0.000009 -0.000152 16.383700 0.000072 -22.291500 -0.000108 -0.000004 -0.259493 4.942140 8.509760 -2.192480 -6.469440 -0.000000 175.942000 -2.428540 -9.409990 39.081100 -0.000007 -0.000012 0.249297 -0.476713 27.607700 40.985400 -0.000006 -0.000013 5.057900 10.628000 -72.105000 11.754300 -0.000000 0.000003 0.000752 0.153831 -10.338100 -2.192510 6.469440 -0.000001 176.716000 4.840160 157.802000 -39.081100 -0.002282 -0.040193 0.232980 -0.094466 67.657000 -40.985400 0.000008 0.000006 -2.854060 -1.477690 -40.900100 -11.754300 -0.000006 -0.000006 0.001115 0.146118 -10.647600
0.000000 0.000000 0.000000 0.000000 0.000000 -0.000000 -4.192900 92.832200 -9.199430 -89.548200 1.360200 -178.856000 15.735700 0.000005 -0.000001 52.327500 86.329500 -51.235900 8.984550 -0.406207 -0.000000 -1.912940 -4.577500 2.107310 16.377300 -0.000001 -0.000001 0.249751 4.609000 -3.111750 6.456720 -0.000001 -0.000000 4.971800 7.020690 -0.606232 12.994200 -0.242716 4.980390 -92.490600 7.819470 -72.270900 5.348090 -0.000007 -0.000001 -63.731800 13.293000 -12.479600 24.328600 0.000019 0.000005 26.531900 26.505900 -48.214800 22.291600 -0.000001 0.000005 -3.704030 5.050740 6.147630 12.994500 -0.242716 -4.980390 89.073300 2.946120 -72.528400 -5.348130 -0.000001 -0.000004 -64.473900 -7.951730 10.157100 -24.328900 0.000322 -0.000009 -0.001734 12.334500 0.000051 -22.291500 -0.000108 -0.000004 2.478830 4.920200 8.973880 -2.192480 -6.469440 -0.000000 179.489000 -2.296980 -2.993080 39.081100 -0.000007 -0.000012 -0.007198 0.020298 19.524600 40.985400 -0.000006 -0.000013 -3.147820 13.758100 -66.611200 11.754300 -0.000000 0.000003 0.001515 0.136231 -11.052300 -2.192510 6.469440 -0.000001 -179.881000 5.299070 154.887000 -39.081100 -0.002282 -0.040193 0.166439 -0.085669 62.311500 -40.985400 0.000008 0.000006 -3.355900 -2.738280 -48.282100 -11.754300 -0.000006 -0.000006 0.001107 0.146299 -10.640200
